<mxfile host="app.diagrams.net" modified="2023-04-21T18:34:58.175Z" agent="Mozilla/5.0 (Windows NT 10.0; Win64; x64) AppleWebKit/537.36 (KHTML, like Gecko) Chrome/112.0.0.0 Safari/537.36 Edg/112.0.1722.48" etag="kOizvTLog3Hh4CPfrvxP" version="21.2.1" type="device">
  <diagram name="Page-1" id="k8v3rHDn6FhqdRON8lOe">
    <mxGraphModel dx="1221" dy="636" grid="1" gridSize="10" guides="1" tooltips="1" connect="1" arrows="1" fold="1" page="1" pageScale="1" pageWidth="850" pageHeight="1100" math="0" shadow="0">
      <root>
        <mxCell id="0" />
        <mxCell id="1" parent="0" />
        <mxCell id="pBrJ_K6vvV4SP7ELr4cM-3" style="edgeStyle=orthogonalEdgeStyle;rounded=0;orthogonalLoop=1;jettySize=auto;html=1;" edge="1" parent="1" source="pBrJ_K6vvV4SP7ELr4cM-1" target="pBrJ_K6vvV4SP7ELr4cM-2">
          <mxGeometry relative="1" as="geometry" />
        </mxCell>
        <mxCell id="pBrJ_K6vvV4SP7ELr4cM-4" value="Creates an account in order to&lt;br&gt;be able to create, view, rate and search &lt;br&gt;for inspiration about brick building" style="edgeLabel;html=1;align=center;verticalAlign=middle;resizable=0;points=[];" vertex="1" connectable="0" parent="pBrJ_K6vvV4SP7ELr4cM-3">
          <mxGeometry x="-0.275" y="1" relative="1" as="geometry">
            <mxPoint x="-1" y="11" as="offset" />
          </mxGeometry>
        </mxCell>
        <mxCell id="pBrJ_K6vvV4SP7ELr4cM-1" value="&lt;b&gt;User&lt;/b&gt;&lt;br&gt;[person]&lt;br&gt;&lt;br&gt;A brick building enthusiast" style="rounded=0;whiteSpace=wrap;html=1;fillColor=#f8cecc;strokeColor=#b85450;" vertex="1" parent="1">
          <mxGeometry x="180" y="100" width="120" height="90" as="geometry" />
        </mxCell>
        <mxCell id="pBrJ_K6vvV4SP7ELr4cM-6" style="edgeStyle=orthogonalEdgeStyle;rounded=0;orthogonalLoop=1;jettySize=auto;html=1;entryX=0.5;entryY=0;entryDx=0;entryDy=0;" edge="1" parent="1" source="pBrJ_K6vvV4SP7ELr4cM-2" target="pBrJ_K6vvV4SP7ELr4cM-5">
          <mxGeometry relative="1" as="geometry" />
        </mxCell>
        <mxCell id="pBrJ_K6vvV4SP7ELr4cM-8" value="Gets information about&lt;br&gt;the type of bricks used in models" style="edgeLabel;html=1;align=center;verticalAlign=middle;resizable=0;points=[];" vertex="1" connectable="0" parent="pBrJ_K6vvV4SP7ELr4cM-6">
          <mxGeometry x="-0.185" y="1" relative="1" as="geometry">
            <mxPoint as="offset" />
          </mxGeometry>
        </mxCell>
        <mxCell id="pBrJ_K6vvV4SP7ELr4cM-24" style="edgeStyle=orthogonalEdgeStyle;rounded=0;orthogonalLoop=1;jettySize=auto;html=1;exitX=1;exitY=0.75;exitDx=0;exitDy=0;entryX=0.25;entryY=0;entryDx=0;entryDy=0;dashed=1;" edge="1" parent="1" source="pBrJ_K6vvV4SP7ELr4cM-2" target="pBrJ_K6vvV4SP7ELr4cM-9">
          <mxGeometry relative="1" as="geometry" />
        </mxCell>
        <mxCell id="pBrJ_K6vvV4SP7ELr4cM-25" value="Sends NPU information&lt;br&gt;in order to be analyzed and&lt;br&gt;categorized" style="edgeLabel;html=1;align=center;verticalAlign=middle;resizable=0;points=[];" vertex="1" connectable="0" parent="pBrJ_K6vvV4SP7ELr4cM-24">
          <mxGeometry x="-0.0192" y="1" relative="1" as="geometry">
            <mxPoint x="12" y="36" as="offset" />
          </mxGeometry>
        </mxCell>
        <mxCell id="pBrJ_K6vvV4SP7ELr4cM-2" value="&lt;b&gt;NPU Backend 1.0â„¢&lt;/b&gt;&lt;br&gt;[software system]&lt;br&gt;&lt;br&gt;Allows the user to manage their account, upload, view and search&lt;br&gt;creations." style="rounded=0;whiteSpace=wrap;html=1;fillColor=#f5f5f5;fontColor=#333333;strokeColor=#666666;" vertex="1" parent="1">
          <mxGeometry x="140" y="290" width="200" height="100" as="geometry" />
        </mxCell>
        <mxCell id="pBrJ_K6vvV4SP7ELr4cM-5" value="&lt;b&gt;Great NPU directory&lt;/b&gt;&lt;br&gt;[software system]&lt;br&gt;&lt;br&gt;Facilitates information about the parts which are manufactured." style="rounded=0;whiteSpace=wrap;html=1;fillColor=#bac8d3;strokeColor=#23445d;" vertex="1" parent="1">
          <mxGeometry x="150" y="480" width="180" height="90" as="geometry" />
        </mxCell>
        <mxCell id="pBrJ_K6vvV4SP7ELr4cM-22" style="edgeStyle=orthogonalEdgeStyle;rounded=0;orthogonalLoop=1;jettySize=auto;html=1;exitX=0;exitY=0.5;exitDx=0;exitDy=0;entryX=1;entryY=0.5;entryDx=0;entryDy=0;dashed=1;" edge="1" parent="1" source="pBrJ_K6vvV4SP7ELr4cM-9" target="pBrJ_K6vvV4SP7ELr4cM-5">
          <mxGeometry relative="1" as="geometry" />
        </mxCell>
        <mxCell id="pBrJ_K6vvV4SP7ELr4cM-27" value="Consumes parts as&lt;br&gt;training data" style="edgeLabel;html=1;align=center;verticalAlign=middle;resizable=0;points=[];" vertex="1" connectable="0" parent="pBrJ_K6vvV4SP7ELr4cM-22">
          <mxGeometry x="0.2742" relative="1" as="geometry">
            <mxPoint x="19" as="offset" />
          </mxGeometry>
        </mxCell>
        <mxCell id="pBrJ_K6vvV4SP7ELr4cM-23" style="edgeStyle=orthogonalEdgeStyle;rounded=0;orthogonalLoop=1;jettySize=auto;html=1;exitX=0.75;exitY=0;exitDx=0;exitDy=0;entryX=1;entryY=0.25;entryDx=0;entryDy=0;dashed=1;" edge="1" parent="1" source="pBrJ_K6vvV4SP7ELr4cM-9" target="pBrJ_K6vvV4SP7ELr4cM-2">
          <mxGeometry relative="1" as="geometry" />
        </mxCell>
        <mxCell id="pBrJ_K6vvV4SP7ELr4cM-26" value="Returns valid approximations&lt;br&gt;of existing parts" style="edgeLabel;html=1;align=center;verticalAlign=middle;resizable=0;points=[];" vertex="1" connectable="0" parent="pBrJ_K6vvV4SP7ELr4cM-23">
          <mxGeometry x="0.1209" y="-2" relative="1" as="geometry">
            <mxPoint x="41" y="7" as="offset" />
          </mxGeometry>
        </mxCell>
        <mxCell id="pBrJ_K6vvV4SP7ELr4cM-9" value="&lt;b&gt;NPU AI Classifier&lt;/b&gt;&lt;br&gt;[software system]&lt;br&gt;&lt;br&gt;Automatically detects and classifies brick parts." style="rounded=0;whiteSpace=wrap;html=1;fillColor=#bac8d3;strokeColor=#23445d;" vertex="1" parent="1">
          <mxGeometry x="470" y="480" width="150" height="90" as="geometry" />
        </mxCell>
      </root>
    </mxGraphModel>
  </diagram>
</mxfile>
